<?xml version="1.0" encoding="UTF-8"?>
<svg xmlns="http://www.w3.org/2000/svg" xmlns:xlink="http://www.w3.org/1999/xlink" width="11pt" height="11pt" viewBox="0 0 11 11" version="1.1">
<g id="surface150736">
<path style=" stroke:none;fill-rule:nonzero;fill:rgb(7.45098%,92.156863%,63.529412%);fill-opacity:1;" d="M 5.15625 2.40625 C 4.96875 2.40625 4.8125 2.5625 4.8125 2.75 C 4.8125 2.9375 4.96875 3.09375 5.15625 3.09375 C 5.34375 3.09375 5.5 2.9375 5.5 2.75 C 5.5 2.5625 5.34375 2.40625 5.15625 2.40625 Z M 6.1875 2.40625 C 6 2.40625 5.84375 2.5625 5.84375 2.75 C 5.84375 2.9375 6 3.09375 6.1875 3.09375 C 6.375 3.09375 6.53125 2.9375 6.53125 2.75 C 6.53125 2.5625 6.375 2.40625 6.1875 2.40625 Z M 4.125 2.75 C 3.9375 2.75 3.78125 2.90625 3.78125 3.09375 C 3.78125 3.28125 3.9375 3.4375 4.125 3.4375 C 4.3125 3.4375 4.46875 3.28125 4.46875 3.09375 C 4.46875 2.90625 4.3125 2.75 4.125 2.75 Z M 7.21875 2.75 C 7.03125 2.75 6.875 2.90625 6.875 3.09375 C 6.875 3.28125 7.03125 3.4375 7.21875 3.4375 C 7.40625 3.4375 7.5625 3.28125 7.5625 3.09375 C 7.5625 2.90625 7.40625 2.75 7.21875 2.75 Z M 3.480469 3.425781 C 3.292969 3.425781 3.136719 3.582031 3.136719 3.769531 C 3.136719 3.960938 3.292969 4.113281 3.480469 4.113281 C 3.667969 4.113281 3.824219 3.960938 3.824219 3.769531 C 3.824219 3.582031 3.667969 3.425781 3.480469 3.425781 Z M 7.90625 3.4375 C 7.71875 3.4375 7.5625 3.59375 7.5625 3.78125 C 7.5625 3.96875 7.71875 4.125 7.90625 4.125 C 8.09375 4.125 8.25 3.96875 8.25 3.78125 C 8.25 3.59375 8.09375 3.4375 7.90625 3.4375 Z M 2.539062 3.605469 C 2.421875 3.605469 2.3125 3.660156 2.25 3.757812 C 2.199219 3.832031 2.179688 3.925781 2.199219 4.015625 C 2.214844 4.105469 2.269531 4.183594 2.34375 4.238281 C 2.417969 4.285156 2.511719 4.304688 2.601562 4.289062 C 2.691406 4.269531 2.769531 4.214844 2.820312 4.140625 C 2.925781 3.984375 2.882812 3.769531 2.726562 3.664062 C 2.671875 3.625 2.609375 3.605469 2.539062 3.605469 Z M 1.777344 4.238281 C 1.585938 4.238281 1.433594 4.394531 1.433594 4.582031 C 1.433594 4.773438 1.585938 4.925781 1.777344 4.925781 C 1.964844 4.925781 2.121094 4.773438 2.121094 4.582031 C 2.121094 4.394531 1.964844 4.238281 1.777344 4.238281 Z M 8.050781 4.382812 C 7.859375 4.382812 7.707031 4.539062 7.707031 4.726562 C 7.707031 4.914062 7.859375 5.070312 8.050781 5.070312 C 8.238281 5.070312 8.394531 4.914062 8.394531 4.726562 C 8.394531 4.539062 8.238281 4.382812 8.050781 4.382812 Z M 9.007812 4.8125 C 8.820312 4.8125 8.664062 4.96875 8.664062 5.15625 C 8.664062 5.34375 8.820312 5.5 9.007812 5.5 C 9.199219 5.5 9.351562 5.34375 9.351562 5.15625 C 9.351562 4.96875 9.199219 4.8125 9.007812 4.8125 Z M 1.375 5.15625 C 1.1875 5.15625 1.03125 5.3125 1.03125 5.5 C 1.03125 5.6875 1.1875 5.84375 1.375 5.84375 C 1.5625 5.84375 1.71875 5.6875 1.71875 5.5 C 1.71875 5.3125 1.5625 5.15625 1.375 5.15625 Z M 9.695312 5.621094 C 9.503906 5.621094 9.351562 5.773438 9.351562 5.964844 C 9.351562 6.15625 9.503906 6.308594 9.695312 6.308594 C 9.882812 6.308594 10.039062 6.15625 10.039062 5.964844 C 10.039062 5.773438 9.882812 5.621094 9.695312 5.621094 Z M 1.03125 6.1875 C 0.84375 6.1875 0.6875 6.34375 0.6875 6.53125 C 0.6875 6.71875 0.84375 6.875 1.03125 6.875 C 1.21875 6.875 1.375 6.71875 1.375 6.53125 C 1.375 6.34375 1.21875 6.1875 1.03125 6.1875 Z M 9.964844 6.707031 C 9.773438 6.707031 9.621094 6.859375 9.621094 7.050781 C 9.621094 7.242188 9.773438 7.394531 9.964844 7.394531 C 10.15625 7.394531 10.308594 7.242188 10.308594 7.050781 C 10.308594 6.859375 10.15625 6.707031 9.964844 6.707031 Z M 1.3125 7.242188 C 1.121094 7.242188 0.96875 7.394531 0.96875 7.585938 C 0.96875 7.773438 1.121094 7.929688 1.3125 7.929688 C 1.5 7.929688 1.65625 7.773438 1.65625 7.585938 C 1.65625 7.394531 1.5 7.242188 1.3125 7.242188 Z M 9.417969 7.570312 C 9.226562 7.570312 9.074219 7.722656 9.074219 7.914062 C 9.074219 8.105469 9.226562 8.257812 9.417969 8.257812 C 9.609375 8.257812 9.761719 8.105469 9.761719 7.914062 C 9.761719 7.722656 9.609375 7.570312 9.417969 7.570312 Z M 8.363281 7.890625 C 8.175781 7.890625 8.019531 8.046875 8.019531 8.234375 C 8.019531 8.425781 8.175781 8.578125 8.363281 8.578125 C 8.554688 8.578125 8.707031 8.425781 8.707031 8.234375 C 8.707031 8.046875 8.554688 7.890625 8.363281 7.890625 Z M 2.0625 7.90625 C 1.875 7.90625 1.71875 8.0625 1.71875 8.25 C 1.71875 8.4375 1.875 8.59375 2.0625 8.59375 C 2.25 8.59375 2.40625 8.4375 2.40625 8.25 C 2.40625 8.0625 2.25 7.90625 2.0625 7.90625 Z M 3.09375 7.90625 C 2.90625 7.90625 2.75 8.0625 2.75 8.25 C 2.75 8.4375 2.90625 8.59375 3.09375 8.59375 C 3.28125 8.59375 3.4375 8.4375 3.4375 8.25 C 3.4375 8.0625 3.28125 7.90625 3.09375 7.90625 Z M 4.125 7.90625 C 3.9375 7.90625 3.78125 8.0625 3.78125 8.25 C 3.78125 8.4375 3.9375 8.59375 4.125 8.59375 C 4.3125 8.59375 4.46875 8.4375 4.46875 8.25 C 4.46875 8.0625 4.3125 7.90625 4.125 7.90625 Z M 5.15625 7.90625 C 4.96875 7.90625 4.8125 8.0625 4.8125 8.25 C 4.8125 8.4375 4.96875 8.59375 5.15625 8.59375 C 5.34375 8.59375 5.5 8.4375 5.5 8.25 C 5.5 8.0625 5.34375 7.90625 5.15625 7.90625 Z M 6.1875 7.90625 C 6 7.90625 5.84375 8.0625 5.84375 8.25 C 5.84375 8.4375 6 8.59375 6.1875 8.59375 C 6.375 8.59375 6.53125 8.4375 6.53125 8.25 C 6.53125 8.0625 6.375 7.90625 6.1875 7.90625 Z M 7.21875 7.90625 C 7.03125 7.90625 6.875 8.0625 6.875 8.25 C 6.875 8.4375 7.03125 8.59375 7.21875 8.59375 C 7.40625 8.59375 7.5625 8.4375 7.5625 8.25 C 7.5625 8.0625 7.40625 7.90625 7.21875 7.90625 Z M 7.21875 7.90625 "/>
</g>
</svg>
