<?xml version="1.0" encoding="UTF-8"?>
<svg xmlns="http://www.w3.org/2000/svg" xmlns:xlink="http://www.w3.org/1999/xlink" width="30pt" height="30pt" viewBox="0 0 30 30" version="1.1">
<g id="surface148856">
<path style=" stroke:none;fill-rule:nonzero;fill:rgb(7.45098%,92.156863%,63.529412%);fill-opacity:1;" d="M 5 4 C 4.449219 4 4 4.449219 4 5 L 4 21 C 4 21.550781 4.449219 22 5 22 L 12 22 L 12 24 L 7.832031 24 C 7.574219 24 7.332031 24.097656 7.148438 24.269531 L 5.160156 26.136719 C 4.828125 26.445312 5.050781 27 5.5 27 L 24.5 27 C 24.949219 27 25.171875 26.445312 24.839844 26.132812 L 22.851562 24.269531 C 22.667969 24.097656 22.425781 24 22.167969 24 L 17.996094 24 L 17.996094 22 L 25 22 C 25.550781 22 26 21.550781 26 21 L 26 5 C 26 4.449219 25.550781 4 25 4 Z M 6 6 L 24 6 L 24 20 L 6 20 Z M 11.980469 8.988281 C 11.71875 8.996094 11.472656 9.105469 11.292969 9.292969 L 8.292969 12.292969 C 7.902344 12.683594 7.902344 13.316406 8.292969 13.707031 L 11.292969 16.707031 C 11.542969 16.96875 11.917969 17.074219 12.265625 16.980469 C 12.617188 16.890625 12.890625 16.617188 12.980469 16.265625 C 13.074219 15.917969 12.96875 15.542969 12.707031 15.292969 L 10.414062 13 L 12.707031 10.707031 C 13.003906 10.417969 13.089844 9.980469 12.929688 9.601562 C 12.769531 9.21875 12.394531 8.976562 11.980469 8.988281 Z M 17.988281 8.988281 C 17.582031 8.992188 17.21875 9.238281 17.0625 9.613281 C 16.910156 9.992188 17 10.421875 17.292969 10.707031 L 19.585938 13 L 17.292969 15.292969 C 17.03125 15.542969 16.925781 15.917969 17.019531 16.265625 C 17.109375 16.617188 17.382812 16.890625 17.734375 16.980469 C 18.082031 17.074219 18.457031 16.96875 18.707031 16.707031 L 21.707031 13.707031 C 22.097656 13.316406 22.097656 12.683594 21.707031 12.292969 L 18.707031 9.292969 C 18.519531 9.097656 18.261719 8.992188 17.988281 8.988281 Z M 17.988281 8.988281 "/>
</g>
</svg>
