<?xml version="1.0" encoding="UTF-8" standalone="yes"?>
<svg xmlns="http://www.w3.org/2000/svg" viewBox="0 0 24 24" width="24" height="24" fill="#000000">
  <path d="M18,9c0.894,0,2,1,3,1l1,0.02V5c0-1.103-0.897-2-2-2H7C5.897,3,5,3.897,5,5v5c-1,0-2.106-1-3-1c-0.574,0-1.015,0.422-1,1 c0,0.929,0,3.071,0,4c-0.014,0.576,0.427,1,1,1c0.894,0,2-1,3-1v5c0,1.103,0.897,2,2,2h13c1.103,0,2-0.897,2-2v-4.873L21,14 c-1,0-2.106,1-3,1c-0.573,0-1.014-0.424-1-1c0-0.929,0-3.071,0-4C16.985,9.422,17.426,9,18,9z"/>
</svg>
