<?xml version="1.0" encoding="UTF-8"?>
<svg xmlns="http://www.w3.org/2000/svg" xmlns:xlink="http://www.w3.org/1999/xlink" width="11pt" height="11pt" viewBox="0 0 11 11" version="1.1">
<g id="surface152913">
<path style=" stroke:none;fill-rule:nonzero;fill:rgb(7.45098%,92.156863%,63.529412%);fill-opacity:1;" d="M 5.5 0.441406 C 2.707031 0.441406 0.441406 2.707031 0.441406 5.5 C 0.441406 8.292969 2.707031 10.558594 5.5 10.558594 C 8.292969 10.558594 10.558594 8.292969 10.558594 5.5 C 10.558594 2.707031 8.292969 0.441406 5.5 0.441406 Z M 5.5 0.878906 C 5.648438 0.878906 5.796875 0.886719 5.941406 0.902344 C 5.953125 1.015625 6.046875 1.101562 6.160156 1.101562 C 6.25 1.101562 6.332031 1.046875 6.363281 0.960938 C 6.925781 1.066406 7.453125 1.28125 7.921875 1.570312 C 7.9375 1.679688 8.03125 1.757812 8.140625 1.761719 C 8.160156 1.761719 8.179688 1.757812 8.195312 1.753906 C 8.339844 1.855469 8.480469 1.96875 8.609375 2.089844 C 8.589844 2.121094 8.582031 2.160156 8.578125 2.199219 C 8.578125 2.320312 8.679688 2.421875 8.800781 2.421875 C 8.839844 2.417969 8.878906 2.410156 8.910156 2.390625 C 9.03125 2.519531 9.144531 2.660156 9.246094 2.804688 C 9.242188 2.820312 9.238281 2.839844 9.238281 2.859375 C 9.238281 2.96875 9.320312 3.0625 9.429688 3.078125 C 9.71875 3.546875 9.933594 4.074219 10.039062 4.636719 C 9.953125 4.667969 9.898438 4.75 9.898438 4.839844 C 9.898438 4.953125 9.984375 5.046875 10.097656 5.058594 C 10.113281 5.203125 10.121094 5.351562 10.121094 5.5 C 10.121094 5.648438 10.113281 5.796875 10.097656 5.941406 C 9.984375 5.953125 9.898438 6.046875 9.898438 6.160156 C 9.898438 6.25 9.953125 6.332031 10.039062 6.363281 C 9.933594 6.925781 9.71875 7.453125 9.429688 7.921875 C 9.320312 7.9375 9.242188 8.03125 9.238281 8.140625 C 9.238281 8.160156 9.242188 8.179688 9.246094 8.195312 C 9.144531 8.339844 9.03125 8.480469 8.910156 8.609375 C 8.878906 8.589844 8.839844 8.582031 8.800781 8.578125 C 8.679688 8.578125 8.578125 8.679688 8.578125 8.800781 C 8.582031 8.839844 8.589844 8.878906 8.609375 8.910156 C 8.480469 9.03125 8.339844 9.144531 8.195312 9.246094 C 8.179688 9.242188 8.160156 9.238281 8.140625 9.238281 C 8.03125 9.238281 7.9375 9.320312 7.921875 9.429688 C 7.453125 9.71875 6.925781 9.933594 6.363281 10.039062 C 6.332031 9.953125 6.25 9.898438 6.160156 9.898438 C 6.046875 9.898438 5.953125 9.984375 5.941406 10.097656 C 5.796875 10.113281 5.648438 10.121094 5.5 10.121094 C 5.351562 10.121094 5.203125 10.113281 5.058594 10.097656 C 5.046875 9.984375 4.953125 9.898438 4.839844 9.898438 C 4.75 9.898438 4.667969 9.953125 4.636719 10.039062 C 4.074219 9.929688 3.546875 9.722656 3.078125 9.429688 C 3.0625 9.320312 2.96875 9.238281 2.859375 9.238281 C 2.84375 9.238281 2.824219 9.242188 2.808594 9.246094 C 2.664062 9.140625 2.523438 9.03125 2.390625 8.910156 C 2.410156 8.878906 2.417969 8.839844 2.421875 8.800781 C 2.421875 8.679688 2.320312 8.578125 2.199219 8.578125 C 2.160156 8.582031 2.121094 8.589844 2.089844 8.609375 C 1.96875 8.480469 1.855469 8.339844 1.753906 8.195312 C 1.757812 8.179688 1.761719 8.160156 1.761719 8.140625 C 1.757812 8.03125 1.679688 7.9375 1.570312 7.921875 C 1.28125 7.453125 1.070312 6.925781 0.964844 6.363281 C 1.046875 6.328125 1.101562 6.25 1.101562 6.160156 C 1.101562 6.046875 1.015625 5.953125 0.902344 5.941406 C 0.890625 5.796875 0.878906 5.648438 0.878906 5.5 C 0.878906 5.351562 0.890625 5.203125 0.902344 5.058594 C 1.015625 5.046875 1.101562 4.953125 1.101562 4.839844 C 1.101562 4.75 1.046875 4.671875 0.964844 4.636719 C 1.070312 4.074219 1.28125 3.546875 1.570312 3.078125 C 1.679688 3.0625 1.761719 2.96875 1.761719 2.859375 C 1.761719 2.839844 1.757812 2.820312 1.753906 2.804688 C 1.855469 2.660156 1.96875 2.519531 2.089844 2.390625 C 2.121094 2.410156 2.160156 2.417969 2.199219 2.421875 C 2.320312 2.421875 2.421875 2.320312 2.421875 2.199219 C 2.417969 2.160156 2.410156 2.121094 2.390625 2.089844 C 2.523438 1.96875 2.664062 1.859375 2.808594 1.753906 C 2.824219 1.757812 2.84375 1.761719 2.859375 1.761719 C 2.96875 1.761719 3.0625 1.679688 3.078125 1.570312 C 3.546875 1.277344 4.074219 1.070312 4.636719 0.960938 C 4.667969 1.046875 4.75 1.101562 4.839844 1.101562 C 4.953125 1.101562 5.046875 1.015625 5.058594 0.902344 C 5.203125 0.886719 5.351562 0.878906 5.5 0.878906 Z M 4.179688 1.320312 C 4.058594 1.320312 3.960938 1.417969 3.960938 1.539062 C 3.960938 1.660156 4.058594 1.761719 4.179688 1.761719 C 4.300781 1.761719 4.398438 1.660156 4.398438 1.539062 C 4.398438 1.417969 4.300781 1.320312 4.179688 1.320312 Z M 5.5 1.320312 C 5.378906 1.320312 5.28125 1.417969 5.28125 1.539062 C 5.28125 1.660156 5.378906 1.761719 5.5 1.761719 C 5.621094 1.761719 5.71875 1.660156 5.71875 1.539062 C 5.71875 1.417969 5.621094 1.320312 5.5 1.320312 Z M 6.820312 1.320312 C 6.699219 1.320312 6.601562 1.417969 6.601562 1.539062 C 6.601562 1.660156 6.699219 1.761719 6.820312 1.761719 C 6.941406 1.761719 7.039062 1.660156 7.039062 1.539062 C 7.039062 1.417969 6.941406 1.320312 6.820312 1.320312 Z M 3.519531 1.980469 C 3.398438 1.980469 3.300781 2.078125 3.300781 2.199219 C 3.300781 2.320312 3.398438 2.421875 3.519531 2.421875 C 3.640625 2.421875 3.738281 2.320312 3.738281 2.199219 C 3.738281 2.078125 3.640625 1.980469 3.519531 1.980469 Z M 4.839844 1.980469 C 4.71875 1.980469 4.621094 2.078125 4.621094 2.199219 C 4.621094 2.320312 4.71875 2.421875 4.839844 2.421875 C 4.960938 2.421875 5.058594 2.320312 5.058594 2.199219 C 5.058594 2.078125 4.960938 1.980469 4.839844 1.980469 Z M 6.160156 1.980469 C 6.039062 1.980469 5.941406 2.078125 5.941406 2.199219 C 5.941406 2.320312 6.039062 2.421875 6.160156 2.421875 C 6.28125 2.421875 6.378906 2.320312 6.378906 2.199219 C 6.378906 2.078125 6.28125 1.980469 6.160156 1.980469 Z M 7.480469 1.980469 C 7.359375 1.980469 7.261719 2.078125 7.261719 2.199219 C 7.261719 2.320312 7.359375 2.421875 7.480469 2.421875 C 7.601562 2.421875 7.699219 2.320312 7.699219 2.199219 C 7.699219 2.078125 7.601562 1.980469 7.480469 1.980469 Z M 2.859375 2.640625 C 2.738281 2.640625 2.640625 2.738281 2.640625 2.859375 C 2.640625 2.980469 2.738281 3.078125 2.859375 3.078125 C 2.980469 3.078125 3.078125 2.980469 3.078125 2.859375 C 3.078125 2.738281 2.980469 2.640625 2.859375 2.640625 Z M 4.179688 2.640625 C 4.058594 2.640625 3.960938 2.738281 3.960938 2.859375 C 3.960938 2.980469 4.058594 3.078125 4.179688 3.078125 C 4.300781 3.078125 4.398438 2.980469 4.398438 2.859375 C 4.398438 2.738281 4.300781 2.640625 4.179688 2.640625 Z M 5.5 2.640625 C 5.378906 2.640625 5.28125 2.738281 5.28125 2.859375 C 5.28125 2.980469 5.378906 3.078125 5.5 3.078125 C 5.621094 3.078125 5.71875 2.980469 5.71875 2.859375 C 5.71875 2.738281 5.621094 2.640625 5.5 2.640625 Z M 6.820312 2.640625 C 6.699219 2.640625 6.601562 2.738281 6.601562 2.859375 C 6.601562 2.980469 6.699219 3.078125 6.820312 3.078125 C 6.941406 3.078125 7.039062 2.980469 7.039062 2.859375 C 7.039062 2.738281 6.941406 2.640625 6.820312 2.640625 Z M 8.140625 2.640625 C 8.019531 2.640625 7.921875 2.738281 7.921875 2.859375 C 7.921875 2.980469 8.019531 3.078125 8.140625 3.078125 C 8.261719 3.078125 8.359375 2.980469 8.359375 2.859375 C 8.359375 2.738281 8.261719 2.640625 8.140625 2.640625 Z M 2.199219 3.300781 C 2.078125 3.300781 1.980469 3.398438 1.980469 3.519531 C 1.980469 3.640625 2.078125 3.738281 2.199219 3.738281 C 2.320312 3.738281 2.421875 3.640625 2.421875 3.519531 C 2.421875 3.398438 2.320312 3.300781 2.199219 3.300781 Z M 3.519531 3.300781 C 3.398438 3.300781 3.300781 3.398438 3.300781 3.519531 C 3.300781 3.640625 3.398438 3.738281 3.519531 3.738281 C 3.640625 3.738281 3.738281 3.640625 3.738281 3.519531 C 3.738281 3.398438 3.640625 3.300781 3.519531 3.300781 Z M 4.839844 3.300781 C 4.71875 3.300781 4.621094 3.398438 4.621094 3.519531 C 4.621094 3.640625 4.71875 3.738281 4.839844 3.738281 C 4.960938 3.738281 5.058594 3.640625 5.058594 3.519531 C 5.058594 3.398438 4.960938 3.300781 4.839844 3.300781 Z M 6.160156 3.300781 C 6.039062 3.300781 5.941406 3.398438 5.941406 3.519531 C 5.941406 3.640625 6.039062 3.738281 6.160156 3.738281 C 6.28125 3.738281 6.378906 3.640625 6.378906 3.519531 C 6.378906 3.398438 6.28125 3.300781 6.160156 3.300781 Z M 7.480469 3.300781 C 7.359375 3.300781 7.261719 3.398438 7.261719 3.519531 C 7.261719 3.640625 7.359375 3.738281 7.480469 3.738281 C 7.601562 3.738281 7.699219 3.640625 7.699219 3.519531 C 7.699219 3.398438 7.601562 3.300781 7.480469 3.300781 Z M 8.800781 3.300781 C 8.679688 3.300781 8.578125 3.398438 8.578125 3.519531 C 8.578125 3.640625 8.679688 3.738281 8.800781 3.738281 C 8.921875 3.738281 9.019531 3.640625 9.019531 3.519531 C 9.019531 3.398438 8.921875 3.300781 8.800781 3.300781 Z M 1.539062 3.960938 C 1.417969 3.960938 1.320312 4.058594 1.320312 4.179688 C 1.320312 4.300781 1.417969 4.398438 1.539062 4.398438 C 1.660156 4.398438 1.761719 4.300781 1.761719 4.179688 C 1.761719 4.058594 1.660156 3.960938 1.539062 3.960938 Z M 2.859375 3.960938 C 2.738281 3.960938 2.640625 4.058594 2.640625 4.179688 C 2.640625 4.300781 2.738281 4.398438 2.859375 4.398438 C 2.980469 4.398438 3.078125 4.300781 3.078125 4.179688 C 3.078125 4.058594 2.980469 3.960938 2.859375 3.960938 Z M 4.179688 3.960938 C 4.058594 3.960938 3.960938 4.058594 3.960938 4.179688 C 3.960938 4.300781 4.058594 4.398438 4.179688 4.398438 C 4.300781 4.398438 4.398438 4.300781 4.398438 4.179688 C 4.398438 4.058594 4.300781 3.960938 4.179688 3.960938 Z M 5.5 3.960938 C 5.378906 3.960938 5.28125 4.058594 5.28125 4.179688 C 5.28125 4.300781 5.378906 4.398438 5.5 4.398438 C 5.621094 4.398438 5.71875 4.300781 5.71875 4.179688 C 5.71875 4.058594 5.621094 3.960938 5.5 3.960938 Z M 6.820312 3.960938 C 6.699219 3.960938 6.601562 4.058594 6.601562 4.179688 C 6.601562 4.300781 6.699219 4.398438 6.820312 4.398438 C 6.941406 4.398438 7.039062 4.300781 7.039062 4.179688 C 7.039062 4.058594 6.941406 3.960938 6.820312 3.960938 Z M 8.140625 3.960938 C 8.019531 3.960938 7.921875 4.058594 7.921875 4.179688 C 7.921875 4.300781 8.019531 4.398438 8.140625 4.398438 C 8.261719 4.398438 8.359375 4.300781 8.359375 4.179688 C 8.359375 4.058594 8.261719 3.960938 8.140625 3.960938 Z M 9.460938 3.960938 C 9.339844 3.960938 9.238281 4.058594 9.238281 4.179688 C 9.238281 4.300781 9.339844 4.398438 9.460938 4.398438 C 9.582031 4.398438 9.679688 4.300781 9.679688 4.179688 C 9.679688 4.058594 9.582031 3.960938 9.460938 3.960938 Z M 2.199219 4.621094 C 2.078125 4.621094 1.980469 4.71875 1.980469 4.839844 C 1.980469 4.960938 2.078125 5.058594 2.199219 5.058594 C 2.320312 5.058594 2.421875 4.960938 2.421875 4.839844 C 2.421875 4.71875 2.320312 4.621094 2.199219 4.621094 Z M 3.519531 4.621094 C 3.398438 4.621094 3.300781 4.71875 3.300781 4.839844 C 3.300781 4.960938 3.398438 5.058594 3.519531 5.058594 C 3.640625 5.058594 3.738281 4.960938 3.738281 4.839844 C 3.738281 4.71875 3.640625 4.621094 3.519531 4.621094 Z M 4.839844 4.621094 C 4.71875 4.621094 4.621094 4.71875 4.621094 4.839844 C 4.621094 4.960938 4.71875 5.058594 4.839844 5.058594 C 4.960938 5.058594 5.058594 4.960938 5.058594 4.839844 C 5.058594 4.71875 4.960938 4.621094 4.839844 4.621094 Z M 6.160156 4.621094 C 6.039062 4.621094 5.941406 4.71875 5.941406 4.839844 C 5.941406 4.960938 6.039062 5.058594 6.160156 5.058594 C 6.28125 5.058594 6.378906 4.960938 6.378906 4.839844 C 6.378906 4.71875 6.28125 4.621094 6.160156 4.621094 Z M 7.480469 4.621094 C 7.359375 4.621094 7.261719 4.71875 7.261719 4.839844 C 7.261719 4.960938 7.359375 5.058594 7.480469 5.058594 C 7.601562 5.058594 7.699219 4.960938 7.699219 4.839844 C 7.699219 4.71875 7.601562 4.621094 7.480469 4.621094 Z M 8.800781 4.621094 C 8.679688 4.621094 8.578125 4.71875 8.578125 4.839844 C 8.578125 4.960938 8.679688 5.058594 8.800781 5.058594 C 8.921875 5.058594 9.019531 4.960938 9.019531 4.839844 C 9.019531 4.71875 8.921875 4.621094 8.800781 4.621094 Z M 1.539062 5.28125 C 1.417969 5.28125 1.320312 5.378906 1.320312 5.5 C 1.320312 5.621094 1.417969 5.71875 1.539062 5.71875 C 1.660156 5.71875 1.761719 5.621094 1.761719 5.5 C 1.761719 5.378906 1.660156 5.28125 1.539062 5.28125 Z M 2.859375 5.28125 C 2.738281 5.28125 2.640625 5.378906 2.640625 5.5 C 2.640625 5.621094 2.738281 5.71875 2.859375 5.71875 C 2.980469 5.71875 3.078125 5.621094 3.078125 5.5 C 3.078125 5.378906 2.980469 5.28125 2.859375 5.28125 Z M 4.179688 5.28125 C 4.058594 5.28125 3.960938 5.378906 3.960938 5.5 C 3.960938 5.621094 4.058594 5.71875 4.179688 5.71875 C 4.300781 5.71875 4.398438 5.621094 4.398438 5.5 C 4.398438 5.378906 4.300781 5.28125 4.179688 5.28125 Z M 5.5 5.28125 C 5.378906 5.28125 5.28125 5.378906 5.28125 5.5 C 5.28125 5.621094 5.378906 5.71875 5.5 5.71875 C 5.621094 5.71875 5.71875 5.621094 5.71875 5.5 C 5.71875 5.378906 5.621094 5.28125 5.5 5.28125 Z M 6.820312 5.28125 C 6.699219 5.28125 6.601562 5.378906 6.601562 5.5 C 6.601562 5.621094 6.699219 5.71875 6.820312 5.71875 C 6.941406 5.71875 7.039062 5.621094 7.039062 5.5 C 7.039062 5.378906 6.941406 5.28125 6.820312 5.28125 Z M 8.140625 5.28125 C 8.019531 5.28125 7.921875 5.378906 7.921875 5.5 C 7.921875 5.621094 8.019531 5.71875 8.140625 5.71875 C 8.261719 5.71875 8.359375 5.621094 8.359375 5.5 C 8.359375 5.378906 8.261719 5.28125 8.140625 5.28125 Z M 9.460938 5.28125 C 9.339844 5.28125 9.238281 5.378906 9.238281 5.5 C 9.238281 5.621094 9.339844 5.71875 9.460938 5.71875 C 9.582031 5.71875 9.679688 5.621094 9.679688 5.5 C 9.679688 5.378906 9.582031 5.28125 9.460938 5.28125 Z M 2.199219 5.941406 C 2.078125 5.941406 1.980469 6.039062 1.980469 6.160156 C 1.980469 6.28125 2.078125 6.378906 2.199219 6.378906 C 2.320312 6.378906 2.421875 6.28125 2.421875 6.160156 C 2.421875 6.039062 2.320312 5.941406 2.199219 5.941406 Z M 3.519531 5.941406 C 3.398438 5.941406 3.300781 6.039062 3.300781 6.160156 C 3.300781 6.28125 3.398438 6.378906 3.519531 6.378906 C 3.640625 6.378906 3.738281 6.28125 3.738281 6.160156 C 3.738281 6.039062 3.640625 5.941406 3.519531 5.941406 Z M 4.839844 5.941406 C 4.71875 5.941406 4.621094 6.039062 4.621094 6.160156 C 4.621094 6.28125 4.71875 6.378906 4.839844 6.378906 C 4.960938 6.378906 5.058594 6.28125 5.058594 6.160156 C 5.058594 6.039062 4.960938 5.941406 4.839844 5.941406 Z M 6.160156 5.941406 C 6.039062 5.941406 5.941406 6.039062 5.941406 6.160156 C 5.941406 6.28125 6.039062 6.378906 6.160156 6.378906 C 6.28125 6.378906 6.378906 6.28125 6.378906 6.160156 C 6.378906 6.039062 6.28125 5.941406 6.160156 5.941406 Z M 7.480469 5.941406 C 7.359375 5.941406 7.261719 6.039062 7.261719 6.160156 C 7.261719 6.28125 7.359375 6.378906 7.480469 6.378906 C 7.601562 6.378906 7.699219 6.28125 7.699219 6.160156 C 7.699219 6.039062 7.601562 5.941406 7.480469 5.941406 Z M 8.800781 5.941406 C 8.679688 5.941406 8.578125 6.039062 8.578125 6.160156 C 8.578125 6.28125 8.679688 6.378906 8.800781 6.378906 C 8.921875 6.378906 9.019531 6.28125 9.019531 6.160156 C 9.019531 6.039062 8.921875 5.941406 8.800781 5.941406 Z M 1.539062 6.601562 C 1.417969 6.601562 1.320312 6.699219 1.320312 6.820312 C 1.320312 6.941406 1.417969 7.039062 1.539062 7.039062 C 1.660156 7.039062 1.761719 6.941406 1.761719 6.820312 C 1.761719 6.699219 1.660156 6.601562 1.539062 6.601562 Z M 2.859375 6.601562 C 2.738281 6.601562 2.640625 6.699219 2.640625 6.820312 C 2.640625 6.941406 2.738281 7.039062 2.859375 7.039062 C 2.980469 7.039062 3.078125 6.941406 3.078125 6.820312 C 3.078125 6.699219 2.980469 6.601562 2.859375 6.601562 Z M 4.179688 6.601562 C 4.058594 6.601562 3.960938 6.699219 3.960938 6.820312 C 3.960938 6.941406 4.058594 7.039062 4.179688 7.039062 C 4.300781 7.039062 4.398438 6.941406 4.398438 6.820312 C 4.398438 6.699219 4.300781 6.601562 4.179688 6.601562 Z M 5.5 6.601562 C 5.378906 6.601562 5.28125 6.699219 5.28125 6.820312 C 5.28125 6.941406 5.378906 7.039062 5.5 7.039062 C 5.621094 7.039062 5.71875 6.941406 5.71875 6.820312 C 5.71875 6.699219 5.621094 6.601562 5.5 6.601562 Z M 6.820312 6.601562 C 6.699219 6.601562 6.601562 6.699219 6.601562 6.820312 C 6.601562 6.941406 6.699219 7.039062 6.820312 7.039062 C 6.941406 7.039062 7.039062 6.941406 7.039062 6.820312 C 7.039062 6.699219 6.941406 6.601562 6.820312 6.601562 Z M 8.140625 6.601562 C 8.019531 6.601562 7.921875 6.699219 7.921875 6.820312 C 7.921875 6.941406 8.019531 7.039062 8.140625 7.039062 C 8.261719 7.039062 8.359375 6.941406 8.359375 6.820312 C 8.359375 6.699219 8.261719 6.601562 8.140625 6.601562 Z M 9.460938 6.601562 C 9.339844 6.601562 9.238281 6.699219 9.238281 6.820312 C 9.238281 6.941406 9.339844 7.039062 9.460938 7.039062 C 9.582031 7.039062 9.679688 6.941406 9.679688 6.820312 C 9.679688 6.699219 9.582031 6.601562 9.460938 6.601562 Z M 2.199219 7.261719 C 2.078125 7.261719 1.980469 7.359375 1.980469 7.480469 C 1.980469 7.601562 2.078125 7.699219 2.199219 7.699219 C 2.320312 7.699219 2.421875 7.601562 2.421875 7.480469 C 2.421875 7.359375 2.320312 7.261719 2.199219 7.261719 Z M 3.519531 7.261719 C 3.398438 7.261719 3.300781 7.359375 3.300781 7.480469 C 3.300781 7.601562 3.398438 7.699219 3.519531 7.699219 C 3.640625 7.699219 3.738281 7.601562 3.738281 7.480469 C 3.738281 7.359375 3.640625 7.261719 3.519531 7.261719 Z M 4.839844 7.261719 C 4.71875 7.261719 4.621094 7.359375 4.621094 7.480469 C 4.621094 7.601562 4.71875 7.699219 4.839844 7.699219 C 4.960938 7.699219 5.058594 7.601562 5.058594 7.480469 C 5.058594 7.359375 4.960938 7.261719 4.839844 7.261719 Z M 6.160156 7.261719 C 6.039062 7.261719 5.941406 7.359375 5.941406 7.480469 C 5.941406 7.601562 6.039062 7.699219 6.160156 7.699219 C 6.28125 7.699219 6.378906 7.601562 6.378906 7.480469 C 6.378906 7.359375 6.28125 7.261719 6.160156 7.261719 Z M 7.480469 7.261719 C 7.359375 7.261719 7.261719 7.359375 7.261719 7.480469 C 7.261719 7.601562 7.359375 7.699219 7.480469 7.699219 C 7.601562 7.699219 7.699219 7.601562 7.699219 7.480469 C 7.699219 7.359375 7.601562 7.261719 7.480469 7.261719 Z M 8.800781 7.261719 C 8.679688 7.261719 8.578125 7.359375 8.578125 7.480469 C 8.578125 7.601562 8.679688 7.699219 8.800781 7.699219 C 8.921875 7.699219 9.019531 7.601562 9.019531 7.480469 C 9.019531 7.359375 8.921875 7.261719 8.800781 7.261719 Z M 2.859375 7.921875 C 2.738281 7.921875 2.640625 8.019531 2.640625 8.140625 C 2.640625 8.261719 2.738281 8.359375 2.859375 8.359375 C 2.980469 8.359375 3.078125 8.261719 3.078125 8.140625 C 3.078125 8.019531 2.980469 7.921875 2.859375 7.921875 Z M 4.179688 7.921875 C 4.058594 7.921875 3.960938 8.019531 3.960938 8.140625 C 3.960938 8.261719 4.058594 8.359375 4.179688 8.359375 C 4.300781 8.359375 4.398438 8.261719 4.398438 8.140625 C 4.398438 8.019531 4.300781 7.921875 4.179688 7.921875 Z M 5.5 7.921875 C 5.378906 7.921875 5.28125 8.019531 5.28125 8.140625 C 5.28125 8.261719 5.378906 8.359375 5.5 8.359375 C 5.621094 8.359375 5.71875 8.261719 5.71875 8.140625 C 5.71875 8.019531 5.621094 7.921875 5.5 7.921875 Z M 6.820312 7.921875 C 6.699219 7.921875 6.601562 8.019531 6.601562 8.140625 C 6.601562 8.261719 6.699219 8.359375 6.820312 8.359375 C 6.941406 8.359375 7.039062 8.261719 7.039062 8.140625 C 7.039062 8.019531 6.941406 7.921875 6.820312 7.921875 Z M 8.140625 7.921875 C 8.019531 7.921875 7.921875 8.019531 7.921875 8.140625 C 7.921875 8.261719 8.019531 8.359375 8.140625 8.359375 C 8.261719 8.359375 8.359375 8.261719 8.359375 8.140625 C 8.359375 8.019531 8.261719 7.921875 8.140625 7.921875 Z M 3.519531 8.578125 C 3.398438 8.578125 3.300781 8.679688 3.300781 8.800781 C 3.300781 8.921875 3.398438 9.019531 3.519531 9.019531 C 3.640625 9.019531 3.738281 8.921875 3.738281 8.800781 C 3.738281 8.679688 3.640625 8.578125 3.519531 8.578125 Z M 4.839844 8.578125 C 4.71875 8.578125 4.621094 8.679688 4.621094 8.800781 C 4.621094 8.921875 4.71875 9.019531 4.839844 9.019531 C 4.960938 9.019531 5.058594 8.921875 5.058594 8.800781 C 5.058594 8.679688 4.960938 8.578125 4.839844 8.578125 Z M 6.160156 8.578125 C 6.039062 8.578125 5.941406 8.679688 5.941406 8.800781 C 5.941406 8.921875 6.039062 9.019531 6.160156 9.019531 C 6.28125 9.019531 6.378906 8.921875 6.378906 8.800781 C 6.378906 8.679688 6.28125 8.578125 6.160156 8.578125 Z M 7.480469 8.578125 C 7.359375 8.578125 7.261719 8.679688 7.261719 8.800781 C 7.261719 8.921875 7.359375 9.019531 7.480469 9.019531 C 7.601562 9.019531 7.699219 8.921875 7.699219 8.800781 C 7.699219 8.679688 7.601562 8.578125 7.480469 8.578125 Z M 4.179688 9.238281 C 4.058594 9.238281 3.960938 9.339844 3.960938 9.460938 C 3.960938 9.582031 4.058594 9.679688 4.179688 9.679688 C 4.300781 9.679688 4.398438 9.582031 4.398438 9.460938 C 4.398438 9.339844 4.300781 9.238281 4.179688 9.238281 Z M 5.5 9.238281 C 5.378906 9.238281 5.28125 9.339844 5.28125 9.460938 C 5.28125 9.582031 5.378906 9.679688 5.5 9.679688 C 5.621094 9.679688 5.71875 9.582031 5.71875 9.460938 C 5.71875 9.339844 5.621094 9.238281 5.5 9.238281 Z M 6.820312 9.238281 C 6.699219 9.238281 6.601562 9.339844 6.601562 9.460938 C 6.601562 9.582031 6.699219 9.679688 6.820312 9.679688 C 6.941406 9.679688 7.039062 9.582031 7.039062 9.460938 C 7.039062 9.339844 6.941406 9.238281 6.820312 9.238281 Z M 6.820312 9.238281 "/>
</g>
</svg>
