<svg id="Layer_1" data-name="Layer 1" xmlns="http://www.w3.org/2000/svg" viewBox="0 0 1804.86 407.05"><defs><style>.cls-1{fill:#1b1a1f;}.cls-2{fill:#13eba2;}</style></defs><title>logo-blanco-verde</title><path class="cls-1" d="M461.31,1196.48l-.57-240.12L343,1154.17H301.23L184,961.51v235H97.14V796.28h76.6L323.53,1045,471,796.28h76l1.14,400.2Z" transform="translate(-97.14 -796.28)"/><path class="cls-1" d="M1448.06,796.28v400.2h-76l-199.53-243v243H1081V796.28h76.61l198.95,243v-243Z" transform="translate(-97.14 -796.28)"/><path class="cls-1" d="M1539.54,1020.39V796.28h92.62V1017c0,76,33.15,107.48,89.18,107.48,56.6,0,89.19-31.44,89.19-107.48V796.28H1902v224.11c0,117.77-67.46,182.95-181.23,182.95S1539.54,1138.16,1539.54,1020.39Z" transform="translate(-97.14 -796.28)"/><polygon class="cls-2" points="493.38 400.19 671.75 0 763.22 0 942.16 400.19 844.97 400.19 716.91 90.9 588.28 400.19 493.38 400.19"/></svg>